<svg width="405" height="95" xmlns="http://www.w3.org/2000/svg" xmlns:xlink="http://www.w3.org/1999/xlink" xml:space="preserve" overflow="hidden"><g transform="translate(-825 -19)"><path d="M54.6422 24.9337 54.6422 59.8462C54.6422 63.5073 53.8022 66.3558 52.1223 68.3827 51.885 68.6657 51.6385 68.9303 51.3737 69.1768 49.3743 71.0668 46.5897 72.0802 43.0198 72.2353 42.7003 72.2537 42.3717 72.2628 42.043 72.2628 37.9985 72.2628 34.8852 71.2312 32.7123 69.1768 30.5302 67.1227 29.4438 64.0093 29.4438 59.8462L29.4438 24.9883 14.4069 24.9883 14.4069 61.2522C14.4069 66.4197 15.5481 70.7747 17.8123 74.317 20.0857 77.8685 23.2903 80.5435 27.4262 82.3422 30.6033 83.7298 34.2005 84.579 38.2358 84.8985 39.4592 84.999 40.7283 85.0447 42.0338 85.0447 44.435 85.0447 46.7083 84.8803 48.8447 84.5425 51.6842 84.1042 54.2862 83.3647 56.6417 82.333 60.7775 80.5253 63.982 77.8593 66.2553 74.3078 68.5287 70.7655 69.6608 66.4015 69.6608 61.243L69.6608 24.9337 54.6422 24.9337Z" fill="#017BA0" transform="matrix(1.00537 0 0 1 825 19.2483)"/><path d="M20.5513 43.2025C20.5422 41.3035 20.5513 39.3132 20.5605 36.9212L23.2082 36.9393C23.1898 39.3132 23.1898 41.3035 23.199 43.1933L20.5513 43.2025Z" fill="#FFFFFF" transform="matrix(1.00537 0 0 1 825 19.2483)"/><path d="M20.7613 61.6448C20.7248 59.7092 20.6882 57.7647 20.6517 55.8108L23.2993 55.7652C23.3358 57.719 23.3725 59.6637 23.409 61.5992L20.7613 61.6448Z" fill="#FFFFFF" transform="matrix(1.00537 0 0 1 825 19.2483)"/><path d="M33.6253 75.2757C33.1688 75.1843 32.7032 75.084 32.2283 74.9652 30.932 74.6457 29.3252 74.244 27.636 73.2762L28.9508 70.9755C30.3293 71.7607 31.6807 72.0985 32.8675 72.3907 33.3057 72.5002 33.7348 72.5915 34.1457 72.6737L33.6253 75.2757Z" fill="#FFFFFF" transform="matrix(1.00537 0 0 1 825 19.2483)"/><path d="M52.1223 68.3735C51.1728 69.9347 48.6257 72.3175 46.754 73.3948 44.9828 74.4083 42.189 75.723 38.0623 75.723 37.7977 75.723 37.5237 75.7138 37.2498 75.7047L37.3593 73.0572C39.6967 73.1575 41.5592 72.7558 43.0198 72.2263 46.5897 72.0802 49.3743 71.0577 51.3737 69.1678 51.6385 68.9213 51.885 68.6565 52.1223 68.3735Z" fill="#FFFFFF" transform="matrix(1.00537 0 0 1 825 19.2483)"/><path d="M24.5137 70.802C23.0163 69.2135 21.939 67.3418 21.3182 65.2328L23.8655 64.4842C24.3675 66.1823 25.2348 67.6978 26.44 68.976L24.5137 70.802Z" fill="#FFFFFF" transform="matrix(1.00537 0 0 1 825 19.2483)"/><path d="M20.606 52.5515C20.5878 50.6158 20.5605 48.5435 20.5605 46.4435L23.2082 46.4345C23.2172 48.516 23.2355 50.5885 23.2537 52.515L20.606 52.5515Z" fill="#FFFFFF" transform="matrix(1.00537 0 0 1 825 19.2483)"/><path d="M23.2355 33.6983 20.5878 33.68C20.597 31.8723 20.6243 30.0647 20.6517 28.266L23.2993 28.3025C23.272 30.092 23.2447 31.8905 23.2355 33.6983Z" fill="#FFFFFF" transform="matrix(1.00537 0 0 1 825 19.2483)"/><path d="M60.814 43.4033 60.8048 40.7192C60.8048 39.4867 60.7957 38.2267 60.7957 36.9393L63.4433 36.9303C63.4433 38.2175 63.4525 39.4775 63.4525 40.71L63.4617 43.3942 60.814 43.4033Z" fill="#FFFFFF" transform="matrix(1.00537 0 0 1 825 19.2483)"/><path d="M60.814 33.6983 60.8048 31.425C60.8048 30.3842 60.7957 29.316 60.7957 28.2203L63.4433 28.2112C63.4433 29.2977 63.4525 30.3658 63.4525 31.4067L63.4617 33.68 60.814 33.6983Z" fill="#FFFFFF" transform="matrix(1.00537 0 0 1 825 19.2483)"/><path d="M60.9692 61.7178C60.96 60.6953 60.9418 58.6685 60.9235 55.9112L63.5712 55.8838C63.5985 58.641 63.6077 60.677 63.6168 61.6995L60.9692 61.7178Z" fill="#FFFFFF" transform="matrix(1.00537 0 0 1 825 19.2483)"/><path d="M62.366 72.2445 59.8737 71.3407C59.8918 71.295 59.9102 71.2493 59.9283 71.2037 60.4762 69.8525 61.0787 66.447 61.1883 64.6758L63.836 64.8493C63.699 66.9583 63.0052 70.665 62.3935 72.1898L62.366 72.2445Z" fill="#FFFFFF" transform="matrix(1.00537 0 0 1 825 19.2483)"/><path d="M55.7012 80.3427C53.4278 82.1322 51.0998 83.5017 48.8538 84.5425 46.7175 84.8803 44.4442 85.0447 42.043 85.0447 40.7373 85.0447 39.4683 84.999 38.245 84.8985 42.3077 84.3233 48.4247 82.7073 54.067 78.2612L55.7012 80.3427Z" fill="#FFFFFF" transform="matrix(1.00537 0 0 1 825 19.2483)"/><path d="M57.8285 78.5167 56.0208 76.5812C57.2533 75.4308 58.1663 74.4175 58.7963 73.477L60.9875 74.9652C60.2478 76.07 59.2162 77.2295 57.8285 78.5167Z" fill="#FFFFFF" transform="matrix(1.00537 0 0 1 825 19.2483)"/><path d="M60.8687 52.6883 60.8597 50.552C60.8505 49.2647 60.8413 47.8952 60.8413 46.4618L63.489 46.4435C63.4982 47.877 63.5073 49.2465 63.5073 50.5337L63.5163 52.6702 60.8687 52.6883Z" fill="#FFFFFF" transform="matrix(1.00537 0 0 1 825 19.2483)"/><path d="M119.857 65.0137C119.327 64.1828 118.633 63.416 117.775 62.7403 121.29 61.2522 124.075 59.0062 126.111 55.9752 128.147 52.9532 129.169 49.429 129.169 45.4118 129.169 39.1762 127.498 34.1913 124.166 30.4937 120.834 26.7778 115.639 24.9337 108.59 24.9337L78.7542 24.9337 78.7542 84.6155 93.6723 84.6155 93.6723 65.7167 100.529 65.7167C102.136 65.7167 103.377 66.0088 104.245 66.5932 105.103 67.1775 105.815 68.1178 106.381 69.4233L113.046 84.6247 128.621 84.6247 121.573 68.5013C120.952 67.004 120.386 65.8537 119.857 65.0137ZM111.521 52.0402C109.878 53.4827 107.604 54.213 104.701 54.213L93.6723 54.213 93.6723 36.419 105.358 36.419C111.11 36.419 113.977 39.4227 113.977 45.4118 113.968 48.3792 113.155 50.5885 111.521 52.0402Z" fill="#017BA0" transform="matrix(1.00537 0 0 1 825 19.2483)"/><path d="M247.893 24.9337 247.893 60.6132 222.503 24.9337 209.713 24.9337 209.713 84.6155 224.64 84.6155 224.64 49.0273 250.03 84.6155 262.912 84.6155 262.912 24.9337 247.893 24.9337Z" fill="#017BA0" transform="matrix(1.00537 0 0 1 825 19.2483)"/><path d="M316.66 24.9337 316.66 59.974C316.66 64.046 315.583 67.0862 313.41 69.0947 311.247 71.1033 308.15 72.1167 304.143 72.1167 300.125 72.1167 297.04 71.1125 294.877 69.0947 292.712 67.0862 291.635 64.046 291.635 59.974L291.635 24.9337 276.717 24.9337 276.717 61.3435C276.717 66.3923 277.84 70.6468 280.103 74.1162 282.35 77.5855 285.537 80.2058 289.645 81.9678 293.753 83.7298 298.592 84.6155 304.152 84.6155 309.712 84.6155 314.552 83.7298 318.66 81.9678 322.768 80.2058 325.953 77.5855 328.208 74.1162 330.465 70.6468 331.597 66.3923 331.597 61.3435L331.597 24.9337 316.66 24.9337Z" fill="#017BA0" transform="matrix(1.00537 0 0 1 825 19.2483)"/><path d="M387.745 59.7092C386.758 57.4085 384.97 55.3817 382.367 53.6288 379.775 51.8667 376.04 50.3603 371.147 49.1187 367.997 48.2787 365.513 47.5665 363.688 46.9732 361.862 46.3705 360.583 45.704 359.835 44.9645 359.095 44.2158 358.722 43.2207 358.722 41.97 358.722 39.8245 359.762 38.4458 361.825 37.8523 363.898 37.259 366.6 36.9577 369.933 36.9577 372.47 36.9577 375.073 37.195 377.767 37.6788 380.46 38.1537 383.125 38.9023 385.782 39.9157L385.782 27.5448C383.737 26.8875 381.08 26.3032 377.812 25.801 374.533 25.2897 371.165 25.034 367.705 25.034 359.735 25.034 353.708 26.4948 349.628 29.4255 345.555 32.347 343.51 36.556 343.51 42.0338 343.51 45.0832 344.032 47.6487 345.09 49.7303 346.14 51.821 347.865 53.5922 350.285 55.053 352.687 56.5138 355.937 57.8377 360.018 59.0337 363.478 59.9923 366.217 60.8048 368.217 61.4987 370.225 62.1835 371.677 62.9777 372.572 63.8633 373.465 64.7672 373.913 65.954 373.913 67.4422 373.913 69.6425 373.01 71.0758 371.183 71.7333 369.357 72.3907 366.6 72.7193 362.885 72.7193 359.927 72.7193 356.785 72.3542 353.48 71.642 350.175 70.9207 347.163 69.9987 344.442 68.8665L344.442 81.1187C346.917 82.196 349.875 83.0087 353.298 83.5838 356.722 84.1498 360.42 84.4328 364.372 84.4328 372.772 84.4328 379.017 82.8625 383.098 79.7402 387.178 76.6087 389.215 72.5002 389.215 67.4332 389.223 64.5847 388.74 62.0008 387.745 59.7092Z" fill="#017BA0" transform="matrix(1.00537 0 0 1 825 19.2483)"/><path d="M206.198 13.503C206.198 14.416 206.162 15.2742 206.225 16.1142 206.243 16.3242 206.572 16.5798 206.818 16.6985 207.85 17.1915 208.7 17.858 209.275 18.9992 208.947 19.0267 208.682 19.0632 208.417 19.0723 205.55 19.0813 202.683 19.1818 199.817 19.0632 194.43 18.8348 189.243 19.7478 184.113 21.2817 182.972 21.6195 181.748 21.866 180.562 21.8752 179.165 21.8843 178.105 21.09 177.485 19.8027 176.927 18.6432 177.183 17.5658 177.932 16.5798 178.58 15.7399 179.483 15.3838 180.525 15.4295 185.135 15.6394 189.737 15.9133 194.347 16.0686 197.168 16.1599 199.998 16.0868 202.883 16.0868 202.883 15.2925 202.883 14.5438 202.883 13.7039 199.907 14.6808 196.977 14.2426 194.1 13.3387 193.425 13.1287 192.385 12.5992 192.357 12.1518 192.293 11.2206 193.417 11.1384 194.137 10.9102 197.37 9.91502 200.62 9.75068 203.925 10.618 204.655 10.8097 205.513 10.8097 206.253 10.6454 210.415 9.70503 214.533 9.79633 218.605 11.0562 219.18 11.2297 219.637 11.7775 220.148 12.1518 219.655 12.4988 219.217 12.9826 218.668 13.1744 214.89 14.4799 211.045 14.8269 207.138 13.7222 206.883 13.6491 206.6 13.6035 206.198 13.503Z" fill="#017BA0" transform="matrix(1.00537 0 0 1 825 19.2483)"/><path d="M130.794 13.7496C130.794 14.5986 130.794 15.3199 130.794 16.0777 133.734 16.0777 136.628 16.1507 139.513 16.0594 144.087 15.9133 148.661 15.6212 153.245 15.4386 154.961 15.3747 156.321 16.4885 156.55 17.995 156.796 19.6475 155.874 21.2635 154.212 21.6652 153.263 21.8933 152.176 21.8933 151.209 21.6925 148.844 21.1903 146.543 20.4052 144.169 19.9397 141.96 19.5105 139.705 19.1818 137.459 19.1178 133.168 18.9902 128.868 19.0813 124.467 19.0813 124.723 18.0862 125.353 17.4472 126.138 17.1915 127.498 16.7623 127.864 15.9042 127.663 14.6169 127.608 14.2791 127.654 13.923 127.654 13.4848 127.124 13.6126 126.695 13.7039 126.275 13.8226 122.413 14.836 118.643 14.3704 114.927 13.1287 114.781 13.0739 114.607 13.0374 114.497 12.937 114.215 12.6722 113.959 12.3801 113.694 12.0879 113.968 11.8505 114.196 11.5127 114.516 11.3758 116.689 10.4537 118.98 10.0337 121.308 10.0976 123.299 10.1524 125.271 10.5541 127.261 10.7276 128.092 10.8006 128.986 10.8097 129.79 10.6089 133.132 9.76895 136.418 9.86937 139.65 11.0015 140.244 11.2115 140.709 11.7866 141.239 12.1883 140.691 12.5627 140.198 13.0922 139.596 13.2931 136.738 14.2243 133.844 14.6899 130.794 13.7496Z" fill="#017BA0" transform="matrix(1.00537 0 0 1 825 19.2483)"/><path d="M166.83 22.213C163.041 22.1308 160.119 19.0632 160.211 15.256 160.302 11.4853 163.251 8.64597 167.003 8.73727 170.92 8.82857 173.742 11.6679 173.687 15.4568 173.622 19.2002 170.492 22.2952 166.83 22.213Z" fill="#017BA0" transform="matrix(1.00537 0 0 1 825 19.2483)"/><path d="M194.118 81.8948C194.137 81.9313 194.155 81.9952 194.183 82.0865 194.155 82.0043 194.128 81.9222 194.118 81.8948Z" fill="#017BA0" transform="matrix(1.00537 0 0 1 825 19.2483)"/><path d="M158.284 54.213 176.087 54.213 179.95 65.8902 153.893 65.9267Z" fill="#017BA0" transform="matrix(1.00537 0 0 1 825 19.2483)"/><path d="M154.194 66.2553C152.56 71.1582 151.665 73.8605 150.04 78.7632 149.702 79.7767 148.123 84.4238 144.863 84.5515 144.617 84.5607 144.389 84.579 144.087 84.5882 143.019 84.5972 141.385 84.6063 139.951 83.6477 139.824 83.5655 139.486 83.3282 139.121 82.9447 137.413 81.1462 137.605 78.745 137.642 78.4437 137.733 77.5398 138.025 76.8825 138.098 76.7182 139.066 74.5178 146.771 55.2173 157.526 28.193 158.832 25.9013 160.968 24.6597 162.849 25.0158 164.182 25.2715 164.986 26.2575 165.195 26.5313 166.893 28.7408 166.035 32.0732 165.561 33.7348 164.118 38.8383 160.055 50.7255 154.194 66.2553Z" fill="#017BA0" transform="matrix(1.00537 0 0 1 825 19.2483)"/><path d="M180.087 66.2553C181.72 71.1582 182.615 73.8605 184.24 78.7632 184.578 79.7767 186.158 84.4238 189.417 84.5515 189.663 84.5607 189.892 84.579 190.202 84.5882 191.27 84.5972 192.905 84.6063 194.338 83.6477 194.467 83.5655 194.803 83.3282 195.168 82.9447 196.877 81.1462 196.685 78.745 196.648 78.4437 196.557 77.5398 196.265 76.8825 196.192 76.7182 195.223 74.5178 187.518 55.2173 176.763 28.193 175.458 25.9013 173.322 24.6597 171.44 25.0158 170.107 25.2715 169.303 26.2575 169.093 26.5313 167.397 28.7408 168.253 32.0732 168.728 33.7348 170.162 38.8383 174.225 50.7255 180.087 66.2553Z" fill="#017BA0" transform="matrix(1.00537 0 0 1 825 19.2483)"/></g></svg>